<?xml version="1.0" encoding="UTF-8"?>
<svg width="800" height="600" viewBox="0 0 800 600" fill="none" xmlns="http://www.w3.org/2000/svg">
  <!-- Фон -->
  <rect width="800" height="600" fill="#F3F4F6"/>
  
  <!-- Стилизованная карта маршрута -->
  <path d="M100 300C100 300 200 250 300 280C400 310 500 270 600 290C700 310 750 350 750 350" 
        stroke="#1E40AF" stroke-width="4" stroke-linecap="round" stroke-dasharray="10 5"/>
  
  <!-- Точки на маршруте -->
  <circle cx="100" cy="300" r="8" fill="#1E40AF"/>
  <circle cx="300" cy="280" r="8" fill="#1E40AF"/>
  <circle cx="500" cy="270" r="8" fill="#1E40AF"/>
  <circle cx="700" cy="310" r="8" fill="#1E40AF"/>
  
  <!-- Стилизованные мотоциклы на маршруте -->
  <g transform="translate(150, 280) rotate(-15)">
    <path d="M0 0C0 0 15 -5 30 -5H45C60 -5 75 0 75 0" stroke="#1E40AF" stroke-width="3" stroke-linecap="round"/>
    <circle cx="20" cy="5" r="6" stroke="#1E40AF" stroke-width="3" fill="none"/>
    <circle cx="55" cy="5" r="6" stroke="#1E40AF" stroke-width="3" fill="none"/>
  </g>
  
  <g transform="translate(400, 260) rotate(10)">
    <path d="M0 0C0 0 15 -5 30 -5H45C60 -5 75 0 75 0" stroke="#1E40AF" stroke-width="3" stroke-linecap="round"/>
    <circle cx="20" cy="5" r="6" stroke="#1E40AF" stroke-width="3" fill="none"/>
    <circle cx="55" cy="5" r="6" stroke="#1E40AF" stroke-width="3" fill="none"/>
  </g>
  
  <g transform="translate(650, 290) rotate(-5)">
    <path d="M0 0C0 0 15 -5 30 -5H45C60 -5 75 0 75 0" stroke="#1E40AF" stroke-width="3" stroke-linecap="round"/>
    <circle cx="20" cy="5" r="6" stroke="#1E40AF" stroke-width="3" fill="none"/>
    <circle cx="55" cy="5" r="6" stroke="#1E40AF" stroke-width="3" fill="none"/>
  </g>
  
  <!-- Декоративные элементы -->
  <circle cx="200" cy="150" r="50" fill="#1E40AF" fill-opacity="0.1"/>
  <circle cx="600" cy="450" r="70" fill="#1E40AF" fill-opacity="0.1"/>
  <circle cx="400" cy="400" r="40" fill="#1E40AF" fill-opacity="0.1"/>
</svg> 