<?xml version="1.0" encoding="UTF-8"?>
<svg width="400" height="400" viewBox="0 0 400 400" fill="none" xmlns="http://www.w3.org/2000/svg">
  <!-- Фон -->
  <circle cx="200" cy="200" r="200" fill="#1E40AF" fill-opacity="0.1"/>
  
  <!-- Стилизованный портрет -->
  <circle cx="200" cy="160" r="80" fill="#1E40AF" fill-opacity="0.2"/>
  
  <!-- Шлем с бородой -->
  <path d="M140 160C140 160 160 140 200 140C240 140 260 160 260 160" 
        stroke="#1E40AF" stroke-width="8" stroke-linecap="round"/>
  <path d="M160 180C160 180 180 170 200 170C220 170 240 180 240 180" 
        stroke="#1E40AF" stroke-width="4" stroke-linecap="round"/>
  <path d="M180 190C180 190 190 210 200 210C210 210 220 190 220 190" 
        stroke="#1E40AF" stroke-width="3" stroke-linecap="round"/>
  
  <!-- Защитные очки и компас -->
  <path d="M170 150C170 150 190 145 200 145C210 145 230 150 230 150" 
        stroke="#1E40AF" stroke-width="3" stroke-linecap="round"/>
  <circle cx="200" cy="145" r="15" stroke="#1E40AF" stroke-width="2" fill="none"/>
  <path d="M200 135L200 155M185 145H215" stroke="#1E40AF" stroke-width="2"/>
  
  <!-- Имя -->
  <text x="200" y="280" text-anchor="middle" font-family="Arial" font-size="24" font-weight="bold" fill="#1E40AF">
    Дмитрий Смирнов
  </text>
  <text x="200" y="310" text-anchor="middle" font-family="Arial" font-size="18" fill="#1E40AF">
    Планировщик маршрутов
  </text>
</svg> 