<?xml version="1.0" encoding="UTF-8"?>
<svg width="1920" height="1080" viewBox="0 0 1920 1080" fill="none" xmlns="http://www.w3.org/2000/svg">
  <!-- Градиентный фон -->
  <defs>
    <linearGradient id="grad1" x1="0%" y1="0%" x2="100%" y2="100%">
      <stop offset="0%" style="stop-color:#1E40AF;stop-opacity:1" />
      <stop offset="100%" style="stop-color:#3B82F6;stop-opacity:1" />
    </linearGradient>
    <pattern id="pattern1" x="0" y="0" width="100" height="100" patternUnits="userSpaceOnUse">
      <path d="M0 50L50 0L100 50L50 100Z" fill="#ffffff" fill-opacity="0.05"/>
    </pattern>
  </defs>
  
  <!-- Основной фон -->
  <rect width="1920" height="1080" fill="url(#grad1)"/>
  <rect width="1920" height="1080" fill="url(#pattern1)"/>
  
  <!-- Стилизованные горы -->
  <path d="M0 800L400 600L800 700L1200 500L1600 650L1920 550L1920 1080L0 1080Z" fill="#ffffff" fill-opacity="0.1"/>
  
  <!-- Стилизованные мотоциклы -->
  <g transform="translate(200, 400)" fill="#ffffff" fill-opacity="0.2">
    <path d="M0 0C0 0 20 -10 40 -10H80C100 -10 120 0 120 0" stroke-width="4" stroke-linecap="round"/>
    <circle cx="30" cy="10" r="8" stroke-width="4" fill="none"/>
    <circle cx="90" cy="10" r="8" stroke-width="4" fill="none"/>
  </g>
  
  <g transform="translate(800, 300)" fill="#ffffff" fill-opacity="0.15">
    <path d="M0 0C0 0 20 -10 40 -10H80C100 -10 120 0 120 0" stroke-width="4" stroke-linecap="round"/>
    <circle cx="30" cy="10" r="8" stroke-width="4" fill="none"/>
    <circle cx="90" cy="10" r="8" stroke-width="4" fill="none"/>
  </g>
  
  <g transform="translate(1400, 450)" fill="#ffffff" fill-opacity="0.1">
    <path d="M0 0C0 0 20 -10 40 -10H80C100 -10 120 0 120 0" stroke-width="4" stroke-linecap="round"/>
    <circle cx="30" cy="10" r="8" stroke-width="4" fill="none"/>
    <circle cx="90" cy="10" r="8" stroke-width="4" fill="none"/>
  </g>
</svg> 