<?xml version="1.0" encoding="utf-8" ?>
<svg xmlns="http://www.w3.org/2000/svg" xmlns:xlink="http://www.w3.org/1999/xlink" width="5770" height="5770">
	<path fill="#FEFEFE" transform="scale(5.63477 5.63477)" d="M0 0L1024 0L1024 1024L0 1024L0 0Z"/>
	<path fill="#5E5E5E" transform="scale(5.63477 5.63477)" d="M449.239 259.708C451.956 251.789 454.818 244.357 462.912 240.473C471.02 236.583 482.481 237.069 490.783 240.155C505.322 245.561 515.207 260.171 522.776 272.94C514.844 272.161 507.313 270.722 499.609 268.696C498.117 272.958 493.779 280.903 495.349 285.308C496.026 287.211 498.959 287.671 498.311 290.188C497.965 291.527 497.297 292.308 496.04 292.889C491.999 294.758 481.121 289.994 478.98 294.189C480.508 299.526 484.854 305.104 487.387 310.144C490.085 315.515 492.22 321.16 494.933 326.508C495.556 327.722 496.286 328.879 497.114 329.964C500.039 333.764 504.656 336.405 507.917 340.119C510.72 337.649 513.759 335.613 516.526 333.07C527.318 323.155 528.432 321.907 543.28 321.069C548.358 326.034 552.261 331.784 556.304 337.583C576.37 326.485 600.717 322.233 622.994 328.801C625.671 329.59 628.295 330.597 630.91 331.571C609.541 329.847 586.313 334.263 569.586 348.48C563.565 353.598 559.939 359.82 556.022 366.555C557.971 370.718 560.041 374.856 561.545 379.205C565.082 377.372 567.802 376.513 571.826 376.159C575.338 378.346 578.837 380.747 582.572 382.532C586.7 380.741 590.61 378.486 594.226 375.81C595.797 370.581 595.956 364.993 596.231 359.574C600.823 357.849 605.401 356.061 610.031 354.443C613.567 357.809 617.055 361.236 620.857 364.306C625.397 363.119 630.027 362.066 634.348 360.205C637.034 355.657 638.756 351.133 640.294 346.094C645.478 344.83 650.7 344.215 655.987 343.562C659.211 347.131 661.501 351.372 664.643 354.986C669.602 355.181 677.985 356.625 681.958 353.07C685.216 350.154 687.267 345.41 690.036 341.985C695.28 342.548 700.583 343.288 705.842 343.631C707.315 348.815 708.399 353.965 711.55 358.441C716.164 359.409 720.764 360.407 725.43 361.096C729.92 358.354 733.43 354.337 737.456 350.997C742.226 352.004 747.288 354.215 751.738 356.21C752.21 361.329 751.991 369.188 756.117 372.797C759.202 375.495 763.77 376.249 767.625 377.239C772.076 374.969 776.211 372.237 780.397 369.524C784.768 371.97 789.264 374.365 793.231 377.441C792.542 382.793 791.901 388.121 791.86 393.528C795.601 397.518 799.547 400.575 804.118 403.563C808.518 401.944 812.981 400.418 817.336 398.685C821.047 401.87 824.928 405.289 827.958 409.135C825.945 414.66 822.474 421.285 825.326 427.043C826.939 430.3 830.219 433.368 832.747 435.979C837.665 435.411 842.586 434.875 847.4 433.671C850.362 437.934 853.247 442.282 856.336 446.454C853.505 450.799 850.542 455.089 848.311 459.783C850.28 464.575 852.064 469.608 854.523 474.17C859.881 474.886 865.221 475.523 870.635 475.626C871.881 479.861 873.406 484.166 874.378 488.464L865.198 497.417C879.969 497.079 894.745 496.945 909.521 497.017C898.856 523.477 886.975 549.43 875.544 575.56C886.797 601.222 897.144 627.45 907.257 653.588L867.852 653.466C863.424 653.455 856.215 652.667 852.1 653.658C850.173 657.283 847.344 660.644 844.926 663.969C840.027 663.677 835.13 663.255 830.235 662.891C826.454 666.842 822.964 671.249 819.44 675.433C821.138 680.532 822.319 685.945 823.697 691.147C820.428 693.922 817.148 696.613 813.698 699.159C808.54 696.865 803.497 694.351 798.047 692.817C793.752 696.16 789.311 699.349 784.945 702.601C785.814 707.738 785.649 713.074 785.627 718.269C781.93 720.449 778.236 722.868 774.281 724.544C770.084 721.31 765.941 717.931 761.467 715.084C755.955 717.224 750.507 719.526 745.129 721.986C743.747 727.087 742.826 732.303 742.377 737.569C737.849 738.717 733.294 739.754 728.715 740.681C726.123 736.201 722.087 732.188 718.621 728.348C713.445 729.502 708.157 730.27 702.929 731.165C700.631 735.853 698.778 740.645 696.949 745.527C692.494 745.753 688.038 745.934 683.58 746.072C681.139 741.461 678.787 736.778 675.955 732.392C670.587 731.585 665.041 731.762 659.63 731.052C656.351 734.876 653.416 739.087 650.328 743.077C645.615 742.069 640.97 740.992 636.329 739.676C635.388 735.01 634.218 730.391 633.097 725.765C627.154 723.912 621.42 721.407 615.51 719.433L603.382 729.863C599.331 727.804 595.134 725.975 591.015 724.054C591.01 719.208 591.132 714.356 591.196 709.51C586.198 706.184 581.248 702.691 576.014 699.744C571.687 702.38 567.344 704.99 562.986 707.574C559.72 704.611 555.889 702.212 552.388 699.52C553.278 694.456 554.522 689.493 555.755 684.505C551.818 680.634 548.442 675.835 544.846 671.62C539.392 672.421 534.164 674.436 528.919 676.087C526.526 673.144 524.101 670.228 521.642 667.341C522.536 662.669 524.002 658.093 525.317 653.525C515.856 653.742 506.397 653.591 496.935 653.52C491.172 653.477 484.7 652.847 479.039 654.08C471.94 655.627 464.752 659.507 458.09 662.392C446.448 667.359 434.849 672.427 423.295 677.597L324.464 721.038C323.24 737.44 319.717 751.244 308.806 764.053C297.527 777.295 281.745 784.776 264.496 786.148C247.202 787.525 231.418 781.269 218.334 770.226C229.275 765.949 261.252 753.404 269.383 747.562C272.945 745.003 275.895 741.497 277.991 737.656C282.257 729.838 283.171 720.033 280.564 711.529C278.044 703.31 272.197 696.721 264.608 692.785C259.129 689.894 252.942 688.615 246.766 689.096C237.91 689.837 228.949 694.315 220.666 697.411C210.609 701.168 200.531 705.014 190.298 708.267C190.972 704.772 191.612 701.238 192.554 697.804C197.906 678.304 210.614 663.607 227.976 653.69L117.011 653.677C127.817 628.315 137.261 602.321 147.469 576.701C137.475 549.934 125.837 523.783 115.826 497.028C153.31 497.881 190.93 497.194 228.429 497.278C242.832 497.31 257.431 496.854 271.805 497.557C273.833 479.398 280.697 462.038 295.274 450.327C307.213 440.736 322.813 435.533 338.139 437.223C352.878 438.849 363.385 445.977 373.577 456.246C375.488 451.454 377.595 446.832 379.845 442.193C377.399 439.227 374.86 435.561 371.852 433.176C365.773 428.357 343.142 418.122 335.428 417.264C328.233 416.464 320.058 419.512 313.068 421.118C315.63 416.482 318.621 412.163 321.603 407.793C310.253 406.113 298.762 405.9 287.443 404.305C304.522 398.298 342.856 391.91 361.187 394.024C367.616 394.766 373.481 396.928 379.408 399.419C381.903 395.872 384.746 392.32 386.842 388.529C386.682 388.367 386.523 388.203 386.361 388.043C382.964 384.701 378.787 382.307 374.885 379.607C364.384 372.339 357.931 363.24 357.779 350.142C357.63 337.215 361.088 327.272 368.647 316.864C369.918 315.114 373.278 311.763 373.908 309.918C375.267 305.939 371.549 307.274 377.467 301.264C387.848 290.718 417.115 265.086 431.598 265.261C439.149 265.352 444.966 267.185 452.549 265.111C451.39 263.347 450.158 261.612 449.239 259.708Z"/>
	<path fill="#2C2B2C" transform="scale(5.63477 5.63477)" d="M449.239 259.708C451.956 251.789 454.818 244.357 462.912 240.473C471.02 236.583 482.481 237.069 490.783 240.155C505.322 245.561 515.207 260.171 522.776 272.94C514.844 272.161 507.313 270.722 499.609 268.696C498.117 272.958 493.779 280.903 495.349 285.308C496.026 287.211 498.959 287.671 498.311 290.188C497.965 291.527 497.297 292.308 496.04 292.889C491.999 294.758 481.121 289.994 478.98 294.189C480.508 299.526 484.854 305.104 487.387 310.144C490.085 315.515 492.22 321.16 494.933 326.508C495.556 327.722 496.286 328.879 497.114 329.964C500.039 333.764 504.656 336.405 507.917 340.119C510.72 337.649 513.759 335.613 516.526 333.07C527.318 323.155 528.432 321.907 543.28 321.069C548.358 326.034 552.261 331.784 556.304 337.583C576.37 326.485 600.717 322.233 622.994 328.801C625.671 329.59 628.295 330.597 630.91 331.571C609.541 329.847 586.313 334.263 569.586 348.48C563.565 353.598 559.939 359.82 556.022 366.555C557.971 370.718 560.041 374.856 561.545 379.205C565.082 377.372 567.802 376.513 571.826 376.159C575.338 378.346 578.837 380.747 582.572 382.532C586.7 380.741 590.61 378.486 594.226 375.81C595.797 370.581 595.956 364.993 596.231 359.574C600.823 357.849 605.401 356.061 610.031 354.443C613.567 357.809 617.055 361.236 620.857 364.306C625.397 363.119 630.027 362.066 634.348 360.205C637.034 355.657 638.756 351.133 640.294 346.094C645.478 344.83 650.7 344.215 655.987 343.562C659.211 347.131 661.501 351.372 664.643 354.986C669.602 355.181 677.985 356.625 681.958 353.07C685.216 350.154 687.267 345.41 690.036 341.985C695.28 342.548 700.583 343.288 705.842 343.631C707.315 348.815 708.399 353.965 711.55 358.441C716.164 359.409 720.764 360.407 725.43 361.096C729.92 358.354 733.43 354.337 737.456 350.997C742.226 352.004 747.288 354.215 751.738 356.21C752.21 361.329 751.991 369.188 756.117 372.797C759.202 375.495 763.77 376.249 767.625 377.239C772.076 374.969 776.211 372.237 780.397 369.524C784.768 371.97 789.264 374.365 793.231 377.441C792.542 382.793 791.901 388.121 791.86 393.528C795.601 397.518 799.547 400.575 804.118 403.563C808.518 401.944 812.981 400.418 817.336 398.685C821.047 401.87 824.928 405.289 827.958 409.135C825.945 414.66 822.474 421.285 825.326 427.043C826.939 430.3 830.219 433.368 832.747 435.979C837.665 435.411 842.586 434.875 847.4 433.671C850.362 437.934 853.247 442.282 856.336 446.454C853.505 450.799 850.542 455.089 848.311 459.783C850.28 464.575 852.064 469.608 854.523 474.17C859.881 474.886 865.221 475.523 870.635 475.626C871.881 479.861 873.406 484.166 874.378 488.464L865.198 497.417C860.556 497.627 855.387 497.128 850.852 497.836C849.786 498.002 847.15 499.717 846.411 499.586C846.015 499.516 845.753 499.122 845.424 498.89L845.806 498.445C843.904 498.316 842.11 498.279 840.211 498.448C839.286 498.889 839.715 498.77 838.559 498.902C833.159 499.517 818.522 499.674 813.205 498.819C812.232 498.662 811.663 498.219 810.926 497.605C803.991 497.343 796.98 497.564 790.032 497.505C789.082 498.18 789.478 497.996 788.353 498.392C786.894 498.906 785.593 498.997 784.195 498.34L783.967 497.341C780.474 499.428 762.09 497.397 756.442 497.889C751.625 498.31 747.52 500.512 742.577 499.832C741.618 500.549 740.998 500.939 739.747 500.833C738.896 500.76 738.007 500.485 737.181 500.27C732.524 499.225 718.61 499.495 713.967 500.396C709.557 503.709 649.013 503.659 640.084 502.431C638.892 502.267 637.747 501.957 636.58 501.674C635.794 501.484 635.339 501.524 634.572 501.759L633.8 501.006C631.524 501.674 628.638 501.187 626.293 500.993C625.009 501.374 624.724 501.319 623.406 501.021C621.015 501.355 618.828 501.334 616.444 500.986C614.079 501.134 611.756 501.103 609.391 501.04C602.004 501.232 594.615 501.287 587.227 501.204C581.061 502.89 573.468 501.09 567.083 501.11C563.403 501.853 558.522 502.489 554.889 501.391C551.153 501.794 547.117 501.825 543.397 501.242L523.251 501.207C520.504 501.552 517.71 501.538 515.017 500.877C512.751 501.485 507.371 501.375 505.194 500.524L504.512 500.973C500.807 501.217 496.426 501.388 492.802 500.579C475.839 499.999 458.821 500.17 441.848 500.141C434.272 500.128 424.46 501.082 417.175 499.55C412.488 500.013 403.143 501.926 399.002 499.273C398.626 499.391 398.25 499.514 397.866 499.603C395.072 500.25 390.519 500.779 387.989 499.291C381.963 500.062 339.194 499.39 334.549 498.138C329.423 500.143 325.727 499.999 320.477 498.83C320.321 498.894 320.172 498.979 320.01 499.023C318.269 499.49 309.507 498.247 307.734 497.445C307.583 497.512 307.438 497.595 307.281 497.647C305.686 498.168 304.201 497.923 302.8 497.132C302.733 497.443 302.436 497.653 302.238 497.901C299.274 498.245 296.087 498.67 293.19 497.795L292.703 496.641C292.364 497.578 292.154 497.884 291.149 498.207C290.058 498.557 288.709 498.224 287.8 497.564C286.561 496.664 286.884 495.182 286.818 493.811L286.253 497.553C283.661 498.66 274.943 498.564 272.244 497.735C272.093 497.689 271.951 497.616 271.805 497.557C273.833 479.398 280.697 462.038 295.274 450.327C307.213 440.736 322.813 435.533 338.139 437.223C352.878 438.849 363.385 445.977 373.577 456.246C375.488 451.454 377.595 446.832 379.845 442.193C377.399 439.227 374.86 435.561 371.852 433.176C365.773 428.357 343.142 418.122 335.428 417.264C328.233 416.464 320.058 419.512 313.068 421.118C315.63 416.482 318.621 412.163 321.603 407.793C310.253 406.113 298.762 405.9 287.443 404.305C304.522 398.298 342.856 391.91 361.187 394.024C367.616 394.766 373.481 396.928 379.408 399.419C381.903 395.872 384.746 392.32 386.842 388.529C386.682 388.367 386.523 388.203 386.361 388.043C382.964 384.701 378.787 382.307 374.885 379.607C364.384 372.339 357.931 363.24 357.779 350.142C357.63 337.215 361.088 327.272 368.647 316.864C369.918 315.114 373.278 311.763 373.908 309.918C375.267 305.939 371.549 307.274 377.467 301.264C387.848 290.718 417.115 265.086 431.598 265.261C439.149 265.352 444.966 267.185 452.549 265.111C451.39 263.347 450.158 261.612 449.239 259.708Z"/>
	<path fill="#FEFEFE" transform="scale(5.63477 5.63477)" d="M587.744 420.292C622.552 398.593 668.312 393.279 707.974 402.589C745.38 411.369 776.598 434.845 796.666 467.447C802.583 476.907 807.369 487.029 810.926 497.605C803.991 497.343 796.98 497.564 790.032 497.505C788.315 493.475 786.341 491.242 782.179 489.662C775.333 487.065 767.383 487.894 760.202 487.299C764.396 480.132 770.024 471.91 767.779 463.18C764.919 452.062 743.35 438.529 733.849 433.264C725.489 428.631 700.978 418.003 691.635 420.254C686.514 421.487 681.354 428.569 677.147 431.814C676.655 436.755 674.507 466.71 673.393 469.171C671.215 459.238 672.931 442.736 672.142 431.755C667.914 427.748 663.453 422.44 658.69 419.205C637.254 418.841 617.973 427.332 600.534 439.077L587.744 420.292Z"/>
	<path fill="#FEFEFE" transform="scale(5.63477 5.63477)" d="M696.464 427.755C715.979 431.112 733.965 438.199 750.074 449.815C754.122 452.735 758.62 456.001 761.472 460.171C763.72 463.458 764.481 466.907 763.64 470.814C762.321 476.953 758.326 482.894 755.231 488.3C748.13 491.026 742.914 495.357 737.181 500.27C732.524 499.225 718.61 499.495 713.967 500.396C708.267 494.995 702.624 492.513 695.499 489.543C693.138 488.56 689.994 487.453 688.069 485.77C686.379 484.293 685.275 481.013 685.171 478.819C684.855 472.108 686.349 464.45 687.002 457.754C687.746 450.137 687.921 442.053 689.386 434.551C689.688 433.003 689.936 431.803 691.023 430.588C692.259 429.206 694.743 428.357 696.464 427.755Z"/>
	<path fill="#FEFEFE" transform="scale(5.63477 5.63477)" d="M575.782 400.115C583.16 394.002 591.722 389.001 600.293 384.77C630.561 369.831 663.132 365.535 696.46 368.577C740.274 372.576 784.139 398.276 811.925 431.902C825.142 447.963 835.533 466.153 842.653 485.696C844.015 489.516 845.929 494.341 845.806 498.445C843.904 498.316 842.11 498.279 840.211 498.448C837.262 489.661 834.381 480.909 830.46 472.493C813.587 436.273 784.9 408.152 749.275 390.446C712.068 371.7 668.921 368.575 629.402 381.763C612.569 387.496 593.819 396.209 581.125 408.751C579.327 405.907 577.375 403.075 575.782 400.115Z"/>
	<path fill="#FEFEFE" transform="scale(5.63477 5.63477)" d="M504.513 413.626C516.711 408.418 525.88 396.986 537.605 390.994C541.191 396.68 544.897 402.329 548.255 408.152C544.357 411.067 539.524 414.042 536.737 418.083C531.999 424.954 535.99 428.502 527.64 436.425C525.335 436.492 521.645 436.093 519.986 437.922C516.87 441.356 501.224 475.823 499.058 481.332C496.573 487.611 494.484 494.039 492.802 500.579C475.839 499.999 458.821 500.17 441.848 500.141C434.272 500.128 424.46 501.082 417.175 499.55C430.737 495.426 444.601 491.76 458.399 488.508C464.412 487.091 484.541 484.547 488.831 481.97C490.146 481.18 491.25 478.988 491.968 477.633C494.352 473.134 496.432 468.509 498.918 464.056C503.035 456.686 520.475 429.698 519.488 422.745C516.689 417.941 509.436 415.744 504.513 413.626Z"/>
	<path fill="#FEFEFE" transform="scale(5.63477 5.63477)" d="M567.338 436.596C571.9 443.289 576.351 450.058 580.689 456.899C571.619 468.481 562.11 479.646 557.861 494.009C553.246 494.2 549.142 494.671 545.778 498.245C544.909 499.168 544.129 500.208 543.397 501.242L523.251 501.207C530.774 480.031 548.66 449.085 567.338 436.596Z"/>
	<path fill="#FEFEFE" transform="scale(5.63477 5.63477)" d="M520.018 354.219L524.546 351.624C541.461 376.626 558.744 401.409 575.262 426.674L599.391 463.245C603.761 469.976 607.773 477.146 612.492 483.62C616.123 489.322 620.246 495.06 623.406 501.021C621.015 501.355 618.828 501.334 616.444 500.986C611.142 494.303 606.701 486.784 602.114 479.593L581.077 446.762L520.018 354.219Z"/>
	<path fill="#FEFEFE" transform="scale(5.63477 5.63477)" d="M334.082 484.721C339.59 482.377 368.989 469.448 371.823 470.532C373.568 471.199 375.434 472.072 377.299 471.335C377.993 471.061 378.233 470.552 378.465 469.854C378.687 469.185 378.684 468.266 378.743 467.557C381.654 466.321 426.12 474.294 430.676 476.207C431.419 476.519 431.455 476.567 432.041 476.932L432.035 477.474C428.078 478.539 386.617 472.196 379.771 470.897C378.076 472.657 376.517 473.946 374.438 475.221L373.806 475.614C373.679 475.692 373.55 475.768 373.422 475.844C376.039 475.886 378.625 475.929 381.23 476.209C373.281 480.61 364.782 484.2 356.546 488.04C349.279 491.429 341.999 495.204 334.549 498.138C329.423 500.143 325.727 499.999 320.477 498.83C318.972 498.106 317.448 497.043 316.398 495.735C315.181 494.219 314.487 492.305 314.741 490.351C315.086 487.707 316.842 485.321 318.933 483.75C322.678 480.936 326.344 480.772 330.818 481.495C332.043 482.515 333.081 483.479 334.082 484.721Z"/>
	<path fill="#FEFEFE" transform="scale(5.63477 5.63477)" d="M552.829 376.727C557.084 382.295 560.79 388.399 564.642 394.258L589.508 432.702C599.492 447.809 609.381 462.977 619.175 478.207C624.023 485.678 629.535 493.199 633.8 501.006C631.524 501.674 628.638 501.187 626.293 500.993C625.009 501.374 624.724 501.319 623.406 501.021C620.246 495.06 616.123 489.322 612.492 483.62C613.512 482.828 612.927 483.044 614.259 483.009C598.56 455.677 579.472 428.998 562.176 402.547C557.393 395.231 552.266 388.041 547.824 380.518C549.454 379.215 551.058 377.834 552.829 376.727Z"/>
	<path fill="#1F1D1E" transform="scale(5.63477 5.63477)" d="M612.492 483.62C613.512 482.828 612.927 483.044 614.259 483.009C618.169 489.071 622.181 495.067 626.293 500.993C625.009 501.374 624.724 501.319 623.406 501.021C620.246 495.06 616.123 489.322 612.492 483.62Z"/>
	<path fill="#FEFEFE" transform="scale(5.63477 5.63477)" d="M560.671 494.939C567.254 483.015 575.104 472.125 583.901 461.747C592.523 474.8 600.402 488.216 609.391 501.04C602.004 501.232 594.615 501.287 587.227 501.204C578.073 496.936 570.763 495.315 560.671 494.939Z"/>
	<path fill="#FEFEFE" transform="scale(5.63477 5.63477)" d="M556.213 419.1C558.046 421.79 559.937 424.456 561.604 427.253C538.627 450.088 526.129 470.492 515.017 500.877C512.751 501.485 507.371 501.375 505.194 500.524C514.65 469.326 532.263 441.217 556.213 419.1Z"/>
	<path fill="#FEFEFE" transform="scale(5.63477 5.63477)" d="M494.332 416.822C501.06 419.08 507.563 421.434 513.824 424.831C508.364 437.729 500.944 449.462 494.08 461.631C491.212 466.717 488.856 472.419 485.457 477.155C456.266 482.985 427.406 490.368 399.002 499.273C398.626 499.391 398.25 499.514 397.866 499.603C395.072 500.25 390.519 500.779 387.989 499.291C397.1 492.801 444.066 484.323 458.492 479.583C468.956 476.144 476.147 470.515 485.629 466.254C492.179 452.137 497.804 437.609 502.469 422.763C499.911 420.505 497.187 418.679 494.332 416.822Z"/>
	<path fill="#FEFEFE" transform="scale(5.63477 5.63477)" d="M286.818 493.811C288.79 480.069 294.814 467.758 306.07 459.222C314.353 452.94 325.347 449.781 335.685 451.305C345.67 452.716 354.655 458.115 360.59 466.268C358.527 467.151 356.429 467.986 354.414 468.972C346.348 461.82 339.386 457.248 328.107 457.911C318.445 458.479 309.95 462.88 303.626 470.162C297.003 477.789 293.914 486.739 292.703 496.641C292.364 497.578 292.154 497.884 291.149 498.207C290.058 498.557 288.709 498.224 287.8 497.564C286.561 496.664 286.884 495.182 286.818 493.811Z"/>
	<path fill="#FEFEFE" transform="scale(5.63477 5.63477)" d="M302.8 497.132C303.179 490.531 304.865 484.317 308.621 478.808C312.822 472.649 319.051 468.275 326.454 466.904C334.976 465.326 341.33 468.095 348.175 472.767C343.629 475.4 339.405 479.199 334.671 481.367C333.124 482.075 332.353 481.628 330.835 481.146L330.818 481.495C326.344 480.772 322.678 480.936 318.933 483.75C316.842 485.321 315.086 487.707 314.741 490.351C314.487 492.305 315.181 494.219 316.398 495.735C317.448 497.043 318.972 498.106 320.477 498.83C320.321 498.894 320.172 498.979 320.01 499.023C318.269 499.49 309.507 498.247 307.734 497.445C307.583 497.512 307.438 497.595 307.281 497.647C305.686 498.168 304.201 497.923 302.8 497.132Z"/>
	<path fill="#1F1D1E" transform="scale(5.63477 5.63477)" d="M307.734 497.445C308.078 494.995 308.563 492.67 309.469 490.36C311.174 486.014 314.2 481.669 318.706 479.924C323.052 478.24 326.765 479.45 330.835 481.146L330.818 481.495C326.344 480.772 322.678 480.936 318.933 483.75C316.842 485.321 315.086 487.707 314.741 490.351C314.487 492.305 315.181 494.219 316.398 495.735C317.448 497.043 318.972 498.106 320.477 498.83C320.321 498.894 320.172 498.979 320.01 499.023C318.269 499.49 309.507 498.247 307.734 497.445Z"/>
	<path fill="#FEFEFE" transform="scale(5.63477 5.63477)" d="M742.577 499.832C746.997 496.166 753.015 493.353 758.751 492.752C764.926 492.106 779.083 493.265 783.967 497.341C780.474 499.428 762.09 497.397 756.442 497.889C751.625 498.31 747.52 500.512 742.577 499.832Z"/>
	<path fill="#737176" transform="scale(5.63477 5.63477)" d="M554.889 501.391C557.964 499.406 563.631 500.738 567.083 501.11C563.403 501.853 558.522 502.489 554.889 501.391Z"/>
	<path fill="#FEFEFE" transform="scale(5.63477 5.63477)" d="M364.506 343.131C374.094 341.405 384.48 341.325 393.782 344.385C389.306 345.873 384.985 347.594 380.636 349.41C385.847 348.85 395.18 345.874 399.831 348.741L399.68 349.488L397.796 350.727C399.134 350.785 400.344 350.745 401.676 350.607C412.478 356.424 433.463 371.694 438.702 382.966C438.283 384.455 437.929 384.728 438.742 386.152C439.203 386.959 438.884 386.363 439.642 387.415C440.528 388.646 440.64 389.698 440.33 391.151C439.272 396.106 415.975 447.453 413.44 450.499L412.796 450.68C412.344 450.068 412.191 449.893 412.067 449.119L410.285 449.267C402.831 447.672 395.369 445.634 388.054 443.487C391.331 431.319 396.749 420.175 401.495 408.574C403.288 404.192 404.403 399.529 406.275 395.201C407.95 391.328 414.053 387.259 417.973 385.844C420.151 385.057 422.406 384.737 424.59 383.864L424.774 383.216L423.909 382.307C418.033 380.914 410.135 384.489 405.282 387.445C399.27 381.912 391.94 377.71 385.138 373.213L386.166 374.743L385.881 375.819C392.421 381.077 400.48 384.457 405.904 391.006C395.77 386.705 368.857 368.898 364.892 358.702C362.947 353.701 363.58 348.266 364.506 343.131Z"/>
	<path fill="#1F1D1E" transform="scale(5.63477 5.63477)" d="M385.881 375.819C382.408 373.453 378.991 370.66 376.032 367.677C372.428 364.042 368.128 358.372 368.132 353.09L368.651 353.237C368.668 353.415 368.672 353.596 368.702 353.773C370.094 362.042 379.001 368.455 385.138 373.213L386.166 374.743L385.881 375.819Z"/>
	<path fill="#1F1D1E" transform="scale(5.63477 5.63477)" d="M410.285 449.267C412.532 443.785 419.533 424.596 422.436 421.196C422.353 424.137 413.6 445.04 412.067 449.119L410.285 449.267Z"/>
	<path fill="#737176" transform="scale(5.63477 5.63477)" d="M401.172 413.362C401.822 416.622 394.178 431.861 392.333 435.495C391.957 432.296 399.604 416.815 401.172 413.362Z"/>
	<path fill="#1F1D1E" transform="scale(5.63477 5.63477)" d="M416.687 391.983L417.314 392.249C412.847 394.809 409.828 396.581 406.401 400.511C406.387 399.792 406.322 400.056 406.634 399.331C408.615 394.734 412.307 393.592 416.687 391.983Z"/>
	<path fill="#FEFEFE" transform="scale(5.63477 5.63477)" d="M649.498 425.688C651.25 425.41 653.14 425.48 654.917 425.42C656.466 426.447 658.266 427.681 659.401 429.165C660.306 430.35 660.575 431.517 660.826 432.95C661.919 439.2 663.992 471.901 663.045 477.282C660.556 491.429 645.483 488.355 636.914 494.866C636.762 494.981 636.613 495.1 636.463 495.217C634.273 491.289 631.702 487.53 629.281 483.739C620.352 470.288 611.749 456.548 603.071 442.93C617.155 432.997 632.609 428.09 649.498 425.688Z"/>
	<path fill="#FEFEFE" transform="scale(5.63477 5.63477)" d="M428.455 271.577C431.41 271.326 434.529 271.194 437.467 271.662C443.032 272.55 446.839 275.577 450.115 280.037C452.887 283.81 455.828 289.354 454.872 294.148C453.871 299.169 445.609 302.925 441.553 305.413L441.801 305.003C444.742 300.037 446.165 294.268 444.543 288.605C442.83 282.623 438.844 278.922 433.603 275.985C436.191 278.292 438.29 280.351 439.88 283.494C441.034 285.776 441.847 288.334 440.869 290.824C440.407 292.001 439.568 292.764 438.427 293.249C436.891 292.752 436.578 291.701 435.313 290.798C434.447 294.772 435.1 300.031 434.995 304.152C434.918 307.171 435.306 315.663 433.06 317.794C430.446 317.776 427.564 316.197 425.152 315.241C427.302 316.725 430.961 318.844 431.988 321.214C429.149 322.553 423.27 319.715 419.17 321.193C419.587 321.815 419.801 322.048 419.875 322.81C416.403 324.538 414.814 326.365 412.408 329.308C411.682 328.035 410.875 326.766 410.304 325.414C406.906 317.367 415.406 289.084 418.964 280.571C411.459 288.347 408.899 295.851 407.244 306.405C405.263 305.231 403.199 304.234 401.138 303.211L400.631 304.041C403.76 311.574 399.964 319.661 402.789 326.818C403.733 329.207 405.979 331.804 407.471 333.922C404.364 332.374 401.873 330.429 399.213 328.235C401.18 330.895 403.371 333.393 405.34 336.068C395.854 331.204 383.922 328.838 373.327 328.433C386.782 331.201 397.106 334.635 408.29 342.916C402.3 341.731 396.419 339.906 390.479 338.482C382.236 336.545 373.89 335.07 365.482 334.064C368.122 327.76 371.114 323.778 375.683 318.703C375.772 317.978 375.784 317.394 375.722 316.656C375.701 316.411 375.672 316.166 375.647 315.92C376.586 314.568 378.019 314.192 379.487 313.605L388.869 315.387C385.528 313.085 382.092 310.87 379.161 308.047C386.624 297.442 416.336 275.08 428.455 271.577Z"/>
	<path fill="#FEFEFE" transform="scale(5.63477 5.63477)" d="M463.483 409.845C472.924 410.678 486.116 417.352 492.841 424.017C483.257 437.862 455.672 467.696 441.629 475.526L437.364 474.307C436.533 471.875 435.373 469.615 434.237 467.316C436.774 468.651 439.242 470.106 441.723 471.542C445.946 468.146 461.29 455.421 462.653 451.17L461.796 450.102C454.645 444.924 447.462 439.791 440.248 434.702L445.047 429.259C455.565 431.825 464.928 436.996 473.931 442.847C478.583 436.883 484.038 430.831 487.205 423.915C481.304 418.263 473.647 415.7 465.914 413.665C459.076 418.695 454.297 425.85 446.916 430.206C450.648 422.717 457.876 416.069 463.483 409.845Z"/>
	<path fill="#FEFEFE" transform="scale(5.63477 5.63477)" d="M421.2 323.889C423.38 324.041 425.467 324.124 427.567 324.782C427.274 325.095 425.458 325.092 424.94 325.14L424.648 325.593C437 334.438 443.54 349.132 453.319 360.445C454.371 361.662 454.278 361.63 454.143 363.207C455.567 363.035 457.114 362.765 458.502 363.251C460.679 364.015 463.846 365.887 464.548 368.265C464.843 369.268 464.7 369.685 464.152 370.496C463.57 369.476 463.047 368.577 462.275 367.684L461.733 368.369C461.112 371.727 463.394 374.196 465.121 376.89C463.453 375.093 461.817 373.227 459.722 371.912C458.496 371.143 457.623 370.748 456.203 371.078C455.801 372.391 456.21 372.723 456.71 373.931C456.957 374.723 457.173 375.416 457.231 376.25C457.288 377.065 457.33 376.723 456.682 377.451C454.194 376.876 452.362 374.223 450.004 373.111L449.537 373.69C449.843 375.713 450.427 377.456 451.136 379.372C449.225 376.937 446.349 373.597 445.866 370.503C445.296 366.857 448.64 367.297 450.39 365.175C448.454 364.887 446.003 365.519 444.182 364.918C440.541 363.716 416.58 335.229 413.725 330.342C415.801 327.361 418.136 325.703 421.2 323.889Z"/>
	<path fill="#FEFEFE" transform="scale(5.63477 5.63477)" d="M467.363 364.308C473.164 361.498 479.273 359.239 485.357 357.124C490.345 358.636 495.756 359.939 500.347 362.446C507.399 366.297 517.17 377.998 522.464 384.294C517.539 380.8 512.689 376.968 507.009 374.795C503.884 375.362 500.712 375.825 497.687 376.815C495.497 378.651 493.678 379.242 490.83 379.221C486.348 379.027 482.852 380.401 478.2 379.264L479.299 378.581C473.712 374.116 470.638 370.719 467.363 364.308Z"/>
	<path fill="#413F3F" transform="scale(5.63477 5.63477)" d="M479.299 378.581C485.272 379.609 491.693 377.247 497.687 376.815C495.497 378.651 493.678 379.242 490.83 379.221C486.348 379.027 482.852 380.401 478.2 379.264L479.299 378.581Z"/>
	<path fill="#FEFEFE" transform="scale(5.63477 5.63477)" d="M456.337 316.463C456.69 316.586 457.102 316.601 457.395 316.832C458.486 317.69 468.12 339.431 469.641 342.571C464.454 345.736 459.312 348.974 454.218 352.286L453.363 352.348C449.058 347.783 445.07 339.752 441.275 334.333C443.927 330.383 444.425 327.471 444.478 322.789C448.174 320.234 452.274 318.344 456.337 316.463Z"/>
	<path fill="#FEFEFE" transform="scale(5.63477 5.63477)" d="M463.474 246.671C470.849 243.302 478.578 242.177 486.429 244.73C487.726 244.918 488.45 244.856 489.341 245.933C489.59 246.234 489.847 246.785 490.027 247.145C500.391 250.469 504.674 256.337 510.849 264.843L512.63 265.818L512.667 266.338C511.281 266.493 510.209 266.391 508.845 266.195L508.141 265.579C501.65 265.166 495.218 263.082 488.97 261.364C478.923 258.36 470.746 254.432 463.474 246.671Z"/>
	<path fill="#413F3F" transform="scale(5.63477 5.63477)" d="M486.429 244.73C487.726 244.918 488.45 244.856 489.341 245.933C489.59 246.234 489.847 246.785 490.027 247.145C486.563 246.622 483.31 246.722 479.935 247.733C477.172 248.561 475.866 249.738 474.562 252.271C474.472 252.446 474.391 252.624 474.305 252.801C474.238 252.538 474.156 252.278 474.103 252.011C473.831 250.653 474.017 249.89 474.868 248.796C477.169 245.837 482.957 245.214 486.429 244.73Z"/>
	<path fill="#413F3F" transform="scale(5.63477 5.63477)" d="M489.304 259.539L489.396 259.347C492.706 259.791 496.142 260.111 499.353 261.052C502.752 262.048 507.524 264.594 510.849 264.843L512.63 265.818L512.667 266.338C511.281 266.493 510.209 266.391 508.845 266.195L508.141 265.579C505.275 262.538 493.607 260.99 489.304 259.539Z"/>
	<path fill="#FEFEFE" transform="scale(5.63477 5.63477)" d="M385.338 448.923C391.05 449.451 405.001 452.912 409.822 455.755C413.618 457.994 418.731 461.964 422.634 464.602C424.768 466.045 428.615 468.412 429.144 471.004C427.881 471.513 427.154 471.033 425.879 470.681C415.98 467.647 405.812 465.962 395.663 464.001C390.214 462.949 384.088 462.203 378.993 459.994C380.604 455.613 382.137 452.389 385.338 448.923Z"/>
	<path fill="#FEFEFE" transform="scale(5.63477 5.63477)" d="M741.37 409.084C740.07 408.414 738.754 407.776 737.423 407.17C699.59 390.029 654.375 388.102 615.518 402.943C609.298 405.319 603.055 408.043 597.277 411.366C593.755 413.391 590.305 416.281 586.514 417.697L585.57 416.901L585.671 415.862C591.702 408.559 618.568 398.067 628.168 395.382C666.672 384.662 707.842 389.426 742.881 408.656L741.37 409.084Z"/>
	<path fill="#FEFEFE" transform="scale(5.63477 5.63477)" d="M470.41 374.762C473.206 375.814 475.695 377.654 478.2 379.264C482.852 380.401 486.348 379.027 490.83 379.221C475.949 384.829 461.404 391.214 446.604 397.027C446.682 392.991 445.373 387.135 446.273 383.426C446.599 382.081 447.21 381.636 448.297 380.885C449.853 380.692 450.722 380.877 452.198 381.399C452.911 381.651 454.275 382.295 454.981 382.348C456.797 382.484 463.094 380.772 464.743 379.941C464.91 379.857 465.063 379.747 465.224 379.65C465.414 379.85 465.611 380.044 465.794 380.25C466.012 380.496 466.215 380.754 466.426 381.006C468.234 379.52 469.308 376.811 470.41 374.762Z"/>
	<path fill="#FEFEFE" transform="scale(5.63477 5.63477)" d="M547.95 336.985C550.4 337.799 554.548 344.491 556.411 346.755C551.821 351.573 547.601 356.987 542.654 361.419L541.698 361.24C538.178 356.419 534.425 351.567 531.834 346.166C536.195 341.847 542.314 339.184 547.95 336.985Z"/>
	<path fill="#FEFEFE" transform="scale(5.63477 5.63477)" d="M538.763 327.19C539.081 327.195 539.398 327.224 539.714 327.259C542.137 327.526 544.057 330.677 545.512 332.441C539.491 335.806 532.754 341.078 526.214 343.071C524.75 343.517 523.302 344.011 521.846 344.483C521.795 345.589 522.049 346.611 522.273 347.685C521.676 349.205 521.067 349.427 519.764 350.364L518.62 350.323C516.234 348.227 514.342 345.436 512.39 342.931C522.098 337.794 526.858 328.231 538.763 327.19Z"/>
	<path fill="#FEFEFE" transform="scale(5.63477 5.63477)" d="M459.668 250.678C462.317 252.142 464.821 254.548 467.244 256.381C470.271 258.672 473.485 260.676 476.702 262.684C476.658 262.812 476.612 262.939 476.569 263.067C476.498 263.281 476.433 263.496 476.362 263.709C476.055 264.623 475.664 265.566 475.664 266.545C475.662 274.33 488.193 282.176 493.173 286.937L492.916 287.642L491.48 288.014C482.819 283.581 478.002 275.795 470.752 269.784C470.081 269.759 469.735 269.772 469.114 269.673C465.445 269.089 457.577 261.524 455.299 258.544C456.625 255.81 458.039 253.244 459.668 250.678Z"/>
	<path fill="#FEFEFE" transform="scale(5.63477 5.63477)" d="M438.385 436.869C440.206 437.636 441.612 438.873 443.128 440.106C438.815 447.388 431.446 455.462 424.634 460.502L418.595 456.691C425.291 450.146 431.395 443.14 438.385 436.869Z"/>
	<path fill="#FEFEFE" transform="scale(5.63477 5.63477)" d="M450.6 270.781C451.699 270.608 453.246 270.224 454.329 270.521C457.729 271.452 461.274 274.944 466.388 276.332C468.763 281.946 470.995 285.657 475.772 289.627L475.816 290.14L474.359 290.414C472.53 290.318 470.976 290.146 469.351 289.231C464.9 286.724 450.704 276.096 449.455 271.365L450.6 270.781Z"/>
	<path fill="#FEFEFE" transform="scale(5.63477 5.63477)" d="M349.903 399.749C359.782 399.475 368.985 400.802 377.388 406.417C378.719 407.307 379.902 408.113 380.222 409.721C380.091 409.804 379.97 409.907 379.828 409.969C377.45 411.016 372.857 408.953 370.494 408.205C358.77 405.685 347.618 402.216 335.674 400.442C340.389 399.985 345.169 399.931 349.903 399.749Z"/>
	<path fill="#FEFEFE" transform="scale(5.63477 5.63477)" d="M465.069 402.219C469.049 401.939 472.769 401.663 476.723 402.417C481.038 403.241 499.396 410.832 501.346 413.663L500.535 414.122C497.033 413.74 493.618 413.336 490.226 412.357C484.713 410.766 479.878 407.45 474.451 405.78C471.648 404.918 466.09 404.517 463.933 402.816L465.069 402.219Z"/>
	<path fill="#FEFEFE" transform="scale(5.63477 5.63477)" d="M479.277 345.551C479.791 345.485 479.938 345.449 480.524 345.478C481.654 345.535 482.943 345.586 483.64 346.478L483.116 347.234C480.581 348.72 478.149 349.048 475.292 349.498L478.793 351.965C474.406 354.086 470.227 355.958 465.403 356.826L454.945 358.259C461.387 353.208 471.36 347.517 479.277 345.551Z"/>
	<path fill="#FEFEFE" transform="scale(5.63477 5.63477)" d="M489.422 340.088C492.279 341.077 495.316 342.275 497.905 343.844C499.54 344.835 501.366 346.222 501.786 348.142C499.346 348.322 496.908 348.37 494.463 348.428C489.548 348.508 485.001 346.256 480.651 344.243C483.4 342.121 486.062 340.945 489.422 340.088Z"/>
	<path fill="#FEFEFE" transform="scale(5.63477 5.63477)" d="M330.231 403.143C344.799 402.687 367.663 412.348 378.731 421.49C371.606 419.738 359.07 412.726 351.277 409.632C344.445 406.919 337.166 405.542 330.231 403.143Z"/>
	<path fill="#FEFEFE" transform="scale(5.63477 5.63477)" d="M430.173 357.082C434.041 360.207 438.284 364.526 441.266 368.506C440.919 369.943 439.637 370.73 438.556 371.64C434.484 367.852 430.359 364.12 426.182 360.447L430.173 357.082Z"/>
	<path fill="#FEFEFE" transform="scale(5.63477 5.63477)" d="M559.409 350.469L559.77 351.173C557.462 355.074 553.799 358.522 551.796 362.477C550.511 365.013 551.224 368.973 549.389 371.13L548.53 370.61L545.175 366.089C548.35 359.54 553.585 354.661 559.409 350.469Z"/>
	<path fill="#FEFEFE" transform="scale(5.63477 5.63477)" d="M384.918 408.178C385.192 408.275 385.466 408.37 385.738 408.47C386.851 408.881 387.714 409.482 388.686 410.151C390.263 410.155 390.661 409.81 392 409.043C393.348 412.701 389.222 421.163 387.992 425.169C387.002 419.479 385.145 413.987 384.918 408.178Z"/>
	<path fill="#413F3F" transform="scale(5.63477 5.63477)" d="M389.618 398.753C391.644 399.913 393.886 400.683 395.951 401.837L395.889 402.098C394.054 401.668 391.72 400.835 389.84 401.127C389.619 401.161 389.402 401.222 389.183 401.27C389.421 401.79 389.666 402.2 389.709 402.777C391.148 403.795 392.974 404.762 393.582 406.482C393.396 407.431 393.22 408.079 392.709 408.904L392 409.043C390.661 409.81 390.263 410.155 388.686 410.151C387.714 409.482 386.851 408.881 385.738 408.47C385.466 408.37 385.192 408.275 384.918 408.178L384.492 407.862C385.154 404.499 387.662 401.478 389.618 398.753Z"/>
	<path fill="#FEFEFE" transform="scale(5.63477 5.63477)" d="M392.709 408.904C392.456 408.827 392.203 408.753 391.952 408.672C390.278 408.132 389.324 407.328 388.525 405.778C388.558 404.389 388.893 403.883 389.709 402.777C391.148 403.795 392.974 404.762 393.582 406.482C393.396 407.431 393.22 408.079 392.709 408.904Z"/>
	<path fill="#D2D1D2" transform="scale(5.63477 5.63477)" d="M389.618 398.753C391.644 399.913 393.886 400.683 395.951 401.837L395.889 402.098C394.054 401.668 391.72 400.835 389.84 401.127C389.619 401.161 389.402 401.222 389.183 401.27C388.062 403.084 386.33 407.008 384.492 407.862C385.154 404.499 387.662 401.478 389.618 398.753Z"/>
	<path fill="#FEFEFE" transform="scale(5.63477 5.63477)" d="M526.673 345.242C527.307 345.371 527.831 345.609 528.425 345.86C531.363 350.349 547.521 372.377 547.393 375.232L546.658 375.344C545.015 374.322 528.463 348.103 526.673 345.242Z"/>
	<path fill="#929296" transform="scale(5.63477 5.63477)" d="M480.313 308.825C483.34 311.646 490.77 329.6 492.014 334.077C486.883 327.041 483.575 316.924 480.313 308.825Z"/>
	<path fill="#929296" transform="scale(5.63477 5.63477)" d="M430.906 437.554L431.176 437.804C427.176 443.596 422.267 449.272 417.5 454.465L417.219 454.193C417.678 451.22 428.345 440.376 430.906 437.554Z"/>
	<path fill="#D2D1D2" transform="scale(5.63477 5.63477)" d="M742.881 408.656C746.786 410.842 750.657 413.242 753.907 416.344C749.724 413.935 745.504 411.574 741.37 409.084L742.881 408.656Z"/>
	<path fill="#5E5E5E" transform="scale(5.63477 5.63477)" d="M490.638 429.005C490.929 430.987 487.112 435.59 485.965 437.297L485.736 436.258C486.947 433.706 488.601 430.971 490.638 429.005Z"/>
	<path fill="#FEFEFE" transform="scale(5.63477 5.63477)" d="M626.585 653.635C630.15 651.713 634.492 652.777 638.287 653.395C640.976 652.886 643.672 652.999 646.397 653.018C651.42 652.964 657.014 652.429 661.969 653.215C663.379 652.936 664.568 652.585 665.978 653.063C672.718 651.993 684.887 652.902 692.195 652.846C693.91 652.731 695.209 652.582 696.812 653.273C701.408 652.692 706.658 652.746 711.269 653.185C711.479 653.389 711.777 653.547 711.869 653.825C716.248 652.858 723.945 651.62 728.018 653.753C736.846 652.174 750.608 653.006 759.866 653.143C764.761 652.643 774.05 651.237 778.434 653.579C779.681 653.14 780.143 652.89 781.448 653.351C781.635 653.417 781.799 653.533 781.975 653.623C784.255 652.082 808.594 652.558 812.548 653.121C815.378 653.066 818.29 652.853 821.105 653.176C826.141 652.78 848.645 651.934 852.1 653.658C850.173 657.283 847.344 660.644 844.926 663.969C840.027 663.677 835.13 663.255 830.235 662.891C826.454 666.842 822.964 671.249 819.44 675.433C821.138 680.532 822.319 685.945 823.697 691.147C820.428 693.922 817.148 696.613 813.698 699.159C808.54 696.865 803.497 694.351 798.047 692.817C793.752 696.16 789.311 699.349 784.945 702.601C785.814 707.738 785.649 713.074 785.627 718.269C781.93 720.449 778.236 722.868 774.281 724.544C770.084 721.31 765.941 717.931 761.467 715.084C755.955 717.224 750.507 719.526 745.129 721.986C743.747 727.087 742.826 732.303 742.377 737.569C737.849 738.717 733.294 739.754 728.715 740.681C726.123 736.201 722.087 732.188 718.621 728.348C713.445 729.502 708.157 730.27 702.929 731.165C700.631 735.853 698.778 740.645 696.949 745.527C692.494 745.753 688.038 745.934 683.58 746.072C681.139 741.461 678.787 736.778 675.955 732.392C670.587 731.585 665.041 731.762 659.63 731.052C656.351 734.876 653.416 739.087 650.328 743.077C645.615 742.069 640.97 740.992 636.329 739.676C635.388 735.01 634.218 730.391 633.097 725.765C627.154 723.912 621.42 721.407 615.51 719.433L603.382 729.863C599.331 727.804 595.134 725.975 591.015 724.054C591.01 719.208 591.132 714.356 591.196 709.51C586.198 706.184 581.248 702.691 576.014 699.744C571.687 702.38 567.344 704.99 562.986 707.574C559.72 704.611 555.889 702.212 552.388 699.52C553.278 694.456 554.522 689.493 555.755 684.505C551.818 680.634 548.442 675.835 544.846 671.62C539.392 672.421 534.164 674.436 528.919 676.087C526.526 673.144 524.101 670.228 521.642 667.341C522.536 662.669 524.002 658.093 525.317 653.525C528.288 652.096 542.906 652.675 546.588 653.242C553.945 653.469 581.414 654.679 586.936 653.229C589.848 652.933 595.965 652.18 598.441 653.684C601.697 652.449 623.077 652.87 626.585 653.635Z"/>
	<path fill="#2C2B2C" transform="scale(5.63477 5.63477)" d="M821.105 653.176C826.141 652.78 848.645 651.934 852.1 653.658C850.173 657.283 847.344 660.644 844.926 663.969C840.027 663.677 835.13 663.255 830.235 662.891C826.454 666.842 822.964 671.249 819.44 675.433C821.138 680.532 822.319 685.945 823.697 691.147C820.428 693.922 817.148 696.613 813.698 699.159C808.54 696.865 803.497 694.351 798.047 692.817C793.752 696.16 789.311 699.349 784.945 702.601C785.814 707.738 785.649 713.074 785.627 718.269C781.93 720.449 778.236 722.868 774.281 724.544C770.084 721.31 765.941 717.931 761.467 715.084C755.955 717.224 750.507 719.526 745.129 721.986C743.747 727.087 742.826 732.303 742.377 737.569C737.849 738.717 733.294 739.754 728.715 740.681C726.123 736.201 722.087 732.188 718.621 728.348C713.445 729.502 708.157 730.27 702.929 731.165C700.631 735.853 698.778 740.645 696.949 745.527C692.494 745.753 688.038 745.934 683.58 746.072C681.139 741.461 678.787 736.778 675.955 732.392C670.587 731.585 665.041 731.762 659.63 731.052C656.351 734.876 653.416 739.087 650.328 743.077C645.615 742.069 640.97 740.992 636.329 739.676C635.388 735.01 634.218 730.391 633.097 725.765C627.154 723.912 621.42 721.407 615.51 719.433L603.382 729.863C599.331 727.804 595.134 725.975 591.015 724.054C591.01 719.208 591.132 714.356 591.196 709.51C586.198 706.184 581.248 702.691 576.014 699.744C571.687 702.38 567.344 704.99 562.986 707.574C559.72 704.611 555.889 702.212 552.388 699.52C553.278 694.456 554.522 689.493 555.755 684.505C551.818 680.634 548.442 675.835 544.846 671.62C539.392 672.421 534.164 674.436 528.919 676.087C526.526 673.144 524.101 670.228 521.642 667.341C522.536 662.669 524.002 658.093 525.317 653.525C528.288 652.096 542.906 652.675 546.588 653.242C574.408 688.877 615.288 711.949 660.173 717.346C707.202 723.273 754.656 710.226 792.045 681.09C802.694 672.822 812.153 663.231 821.105 653.176Z"/>
	<path fill="#FEFEFE" transform="scale(5.63477 5.63477)" d="M626.585 653.635C630.15 651.713 634.492 652.777 638.287 653.395C640.976 652.886 643.672 652.999 646.397 653.018C651.42 652.964 657.014 652.429 661.969 653.215C663.379 652.936 664.568 652.585 665.978 653.063C672.718 651.993 684.887 652.902 692.195 652.846C693.91 652.731 695.209 652.582 696.812 653.273C701.408 652.692 706.658 652.746 711.269 653.185C711.479 653.389 711.777 653.547 711.869 653.825C716.248 652.858 723.945 651.62 728.018 653.753C736.846 652.174 750.608 653.006 759.866 653.143C733.817 674.639 698.038 683.164 664.822 680.022C639.559 677.633 619.135 667.703 598.441 653.684C601.697 652.449 623.077 652.87 626.585 653.635Z"/>
	<path fill="#1F1D1E" transform="scale(5.63477 5.63477)" d="M626.585 653.635C630.15 651.713 634.492 652.777 638.287 653.395C640.976 652.886 643.672 652.999 646.397 653.018C651.42 652.964 657.014 652.429 661.969 653.215C663.379 652.936 664.568 652.585 665.978 653.063C664.419 655.955 663.126 659.242 659.726 660.291C651.188 662.925 634.486 657.373 626.585 653.635Z"/>
	<path fill="#FEFEFE" transform="scale(5.63477 5.63477)" d="M646.397 653.018C651.42 652.964 657.014 652.429 661.969 653.215C659.325 655.517 657.297 656.009 653.779 655.715C650.554 655.446 647.324 654.91 644.118 654.477C642.156 654.229 640.223 653.79 638.287 653.395C640.976 652.886 643.672 652.999 646.397 653.018Z"/>
	<path fill="#1F1D1E" transform="scale(5.63477 5.63477)" d="M692.195 652.846C693.91 652.731 695.209 652.582 696.812 653.273C701.408 652.692 706.658 652.746 711.269 653.185C711.479 653.389 711.777 653.547 711.869 653.825C716.248 652.858 723.945 651.62 728.018 653.753C718.855 657.197 709.47 660.705 699.654 661.554C696.502 659.18 694.454 656.027 692.195 652.846Z"/>
	<path fill="#FEFEFE" transform="scale(5.63477 5.63477)" d="M696.812 653.273C701.408 652.692 706.658 652.746 711.269 653.185C711.479 653.389 711.777 653.547 711.869 653.825C708.258 654.803 704.621 655.679 700.961 656.451L696.812 653.273Z"/>
	<path fill="#2C2B2C" transform="scale(5.63477 5.63477)" d="M759.866 653.143C764.761 652.643 774.05 651.237 778.434 653.579C772.524 658.332 766.595 663.219 760.244 667.373C736.872 682.476 709.682 690.607 681.856 690.814C647.316 691.164 611.617 677.589 586.936 653.229C589.848 652.933 595.965 652.18 598.441 653.684C619.135 667.703 639.559 677.633 664.822 680.022C698.038 683.164 733.817 674.639 759.866 653.143Z"/>
	<path fill="#2C2B2C" transform="scale(5.63477 5.63477)" d="M781.975 653.623C784.255 652.082 808.594 652.558 812.548 653.121C782.711 686.024 738.692 708.546 694.002 710.603C676.034 711.43 655.886 709.139 638.822 703.245C647.272 704.562 655.715 705.986 664.274 706.344C697.131 707.738 729.478 697.867 755.958 678.366C765.875 671.133 773.642 662.489 781.975 653.623Z"/>
	<path fill="#FEFEFE" transform="scale(5.63477 5.63477)" d="M133.456 507.249C169.989 506.534 206.653 507.079 243.197 507.072C323.151 506.752 403.106 507.039 483.056 507.933L893.21 508.635C884.435 530.757 874.191 552.549 864.408 574.256C867.243 581.217 891.724 641.328 891.496 643.15L890.581 643.469L132.298 643.447C141.532 621.017 150.019 598.266 159.129 575.782C156.52 569.71 131.256 510.051 131.804 507.563L133.456 507.249Z"/>
	<path fill="#DC460D" transform="scale(5.63477 5.63477)" d="M196.428 530.036C210.363 530.101 242.795 528.208 254.26 531.819C259.976 533.619 265.487 536.774 268.183 542.371C270.849 547.904 270.622 555.403 268.6 561.144C266.569 566.909 262.009 570.111 256.686 572.564C262.945 574.804 268.801 576.923 272.139 583.179C275.536 589.545 274.64 596.289 272.632 602.882C271.533 605.308 270.255 607.565 268.333 609.444C264.883 612.816 260.409 614.774 255.768 615.858C246.87 617.937 237.031 617.31 227.937 617.329L196.434 617.365C196.055 588.27 196.372 559.134 196.428 530.036Z"/>
	<path fill="#FEFEFE" transform="scale(5.63477 5.63477)" d="M217.991 581.353C225.523 581.301 243.43 579.592 249.157 583.654C250.573 584.658 251.635 586.046 251.909 587.79C252.381 590.795 250.937 594.023 249.273 596.421C242.854 600.95 226.218 599.204 218.01 599.156L217.991 581.353Z"/>
	<path fill="#FEFEFE" transform="scale(5.63477 5.63477)" d="M217.989 548.963C225.619 548.9 239.638 547.098 245.9 551.406C247.318 552.381 248.135 553.615 248.404 555.32C248.761 557.588 247.636 560.099 246.372 561.898C239.102 565.965 226.311 564.434 217.985 564.474L217.989 548.963Z"/>
	<path fill="#DC460D" transform="scale(5.63477 5.63477)" d="M408.079 530.481L473.65 530.443C473.717 536.629 473.727 542.816 473.681 549.002C459.322 548.89 444.963 548.859 430.604 548.908L430.565 563.994L468.913 563.978C468.863 569.74 468.861 575.503 468.908 581.265C456.185 580.907 443.414 581.068 430.685 581.039C430.088 586.51 430.524 592.538 430.526 598.063L474.568 598.037L474.599 617.15C452.532 616.658 430.369 616.949 408.296 617.084L408.079 530.481Z"/>
	<path fill="#DC460D" transform="scale(5.63477 5.63477)" d="M322.057 530.041L342.666 530.022L342.781 567.85C353.082 555.043 363.761 542.746 374.645 530.442L398.548 530.503C389.363 543.182 379.073 555.891 368.172 567.149C375.504 577.483 382.482 588.098 389.578 598.597C394.015 604.801 398.339 611.084 402.549 617.444C393.955 617.081 385.379 617.111 376.779 617.137C368.269 606.481 360.955 594.356 353.252 583.076C349.716 587.022 346.182 590.954 342.832 595.061C342.793 602.519 342.802 609.977 342.858 617.435L321.961 617.399L322.057 530.041Z"/>
	<path fill="#DC460D" transform="scale(5.63477 5.63477)" d="M590.88 537.436L605.255 537.441C615.381 552.437 628.261 566.918 639.456 581.267L639.601 538.986L658.114 538.982L658.03 588.773C658.023 597.338 658.473 606.181 657.867 614.715L657.049 615.126L643.144 614.992C638.184 609.678 633.838 603.509 629.317 597.801C622.611 589.394 615.833 581.045 608.983 572.754C609.705 586.884 609.314 601.197 609.347 615.35C603.246 615.101 597.116 615.287 591.011 615.352L590.88 537.436Z"/>
	<path fill="#DC460D" transform="scale(5.63477 5.63477)" d="M511.632 537.41L530.799 537.431L530.717 569.585C530.706 575.77 530.12 582.679 531.104 588.769C531.451 590.912 532.354 592.792 533.766 594.439C536.328 597.428 540.246 598.918 544.118 599.054C547.989 599.19 552.091 597.997 554.891 595.226C556.699 593.437 557.652 591.233 558.11 588.757C559.247 582.629 558.639 575.657 558.626 569.424L558.626 537.446L577.474 537.437L577.498 553.75L577.559 574.745C577.581 586.147 578.523 597.116 570.217 606.215C564.025 612.996 555.428 616.299 546.364 616.595C536.875 616.905 527.21 614.285 520.26 607.544C516.656 604.045 514.088 599.619 512.841 594.753C510.63 586.398 511.582 576.71 511.591 568.107L511.632 537.41Z"/>
	<path fill="#DC460D" transform="scale(5.63477 5.63477)" d="M814.229 538.463L833.308 538.525C828.863 547.703 823.651 556.611 818.619 565.48C814.854 572.117 808.553 580.623 807.077 588.107C805.5 596.102 806.586 606.756 806.651 615.045L788.117 615.057C787.859 606.434 789.365 594.686 787.592 586.52C787.235 584.876 786.137 583.251 785.282 581.817C777.321 567.813 768.472 553.747 761.932 539.029L781.368 539.033C786.8 549.088 792.491 558.978 797.607 569.202C803.249 559.012 808.464 548.582 814.229 538.463Z"/>
	<path fill="#DC460D" transform="scale(5.63477 5.63477)" d="M696.534 539.201C717.195 539.395 737.858 539.373 758.519 539.135L758.482 555.957L737.04 555.997L737.072 593.25L737.033 615.212C730.827 615.022 724.594 615.104 718.384 615.086L718.34 556.151C711.09 555.964 703.798 556.142 696.543 556.161L696.534 539.201Z"/>
	<path fill="#DC460D" transform="scale(5.63477 5.63477)" d="M285.418 529.962L306.52 529.899L306.505 617.374C299.493 617.215 292.479 617.181 285.466 617.272L285.418 529.962Z"/>
	<path fill="#DC460D" transform="scale(5.63477 5.63477)" d="M671.753 539.003L689.947 539.012L689.906 615.198C683.851 615.003 677.789 615.101 671.732 615.137L671.753 539.003Z"/>
	<path fill="#FEFEFE" transform="scale(5.63477 5.63477)" d="M400.838 653.749C405.351 653.701 409.863 653.701 414.375 653.747C386.528 665.27 359.024 677.964 331.334 689.9L325.184 692.535C323.279 687.03 321.042 681.78 318.496 676.546C327.619 672.305 337.01 668.588 346.212 664.512C353.386 661.334 362.852 655.813 370.376 654.391C378.782 652.802 391.952 653.768 400.838 653.749Z"/>
	<path fill="#FEFEFE" transform="scale(5.63477 5.63477)" d="M280.158 653.689C303.129 653.843 326.101 653.791 349.072 653.534C344.435 655.781 339.787 658.004 335.128 660.204C325.357 664.194 315.957 669.148 306.183 673.188C297.866 664.252 291.054 659.18 280.158 653.689Z"/>
	<path fill="#5E5E5E" transform="scale(5.63477 5.63477)" d="M226.023 363.162C238.152 361.436 250.745 364.897 261.222 370.94C273.195 377.846 282.073 390.141 285.538 403.473C289.253 417.766 286.808 434.185 279.355 446.88C271.188 460.788 259.099 470.663 243.365 474.605C228.265 478.39 212.9 476.519 199.485 468.454C185.742 460.192 178.568 447.198 174.851 432.024C173.07 418.393 174.837 407.317 180.727 394.903C186.97 399.587 193.671 405.169 198.862 410.989C198.459 414.056 198.02 417.184 198.158 420.284C198.58 428.463 202.284 436.125 208.431 441.536C214.46 446.804 222.345 449.443 230.331 448.867C238.367 448.301 246.333 444.084 251.499 437.93C256.644 431.713 259.074 423.69 258.242 415.663C257.466 407.757 253.159 399.898 247.02 394.881C239.364 388.625 230.813 387.91 221.337 388.904C217.01 382.159 211.011 376.403 207.134 369.404C213.188 366.045 219.19 364.203 226.023 363.162Z"/>
</svg>
